<mxfile host="app.diagrams.net" modified="2022-01-05T08:46:32.443Z" agent="5.0 (Windows NT 10.0; Win64; x64) AppleWebKit/537.36 (KHTML, like Gecko) Chrome/96.0.4664.110 Safari/537.36 Edg/96.0.1054.62" etag="4L47G6ojpQ0FZr4iExzQ" version="15.0.3" type="github">
  <diagram name="Page-1" id="c4acf3e9-155e-7222-9cf6-157b1a14988f">
    <mxGraphModel dx="1433" dy="831" grid="1" gridSize="10" guides="1" tooltips="1" connect="1" arrows="1" fold="1" page="1" pageScale="1" pageWidth="850" pageHeight="1100" background="none" math="0" shadow="0">
      <root>
        <mxCell id="0" />
        <mxCell id="1" parent="0" />
        <mxCell id="-vrJm0YTmy-wLik_O10C-3" value="" style="whiteSpace=wrap;html=1;aspect=fixed;" vertex="1" parent="1">
          <mxGeometry x="190" y="120" width="450" height="450" as="geometry" />
        </mxCell>
        <mxCell id="-vrJm0YTmy-wLik_O10C-18" style="edgeStyle=none;rounded=0;orthogonalLoop=1;jettySize=auto;html=1;entryX=0;entryY=0.5;entryDx=0;entryDy=0;endArrow=none;endFill=0;" edge="1" parent="1" source="-vrJm0YTmy-wLik_O10C-1" target="-vrJm0YTmy-wLik_O10C-10">
          <mxGeometry relative="1" as="geometry" />
        </mxCell>
        <mxCell id="-vrJm0YTmy-wLik_O10C-19" style="edgeStyle=none;rounded=0;orthogonalLoop=1;jettySize=auto;html=1;entryX=0;entryY=0.5;entryDx=0;entryDy=0;endArrow=none;endFill=0;" edge="1" parent="1" source="-vrJm0YTmy-wLik_O10C-1" target="-vrJm0YTmy-wLik_O10C-11">
          <mxGeometry relative="1" as="geometry" />
        </mxCell>
        <mxCell id="-vrJm0YTmy-wLik_O10C-20" style="edgeStyle=none;rounded=0;orthogonalLoop=1;jettySize=auto;html=1;entryX=0;entryY=0.5;entryDx=0;entryDy=0;endArrow=none;endFill=0;" edge="1" parent="1" source="-vrJm0YTmy-wLik_O10C-1" target="-vrJm0YTmy-wLik_O10C-15">
          <mxGeometry relative="1" as="geometry" />
        </mxCell>
        <mxCell id="-vrJm0YTmy-wLik_O10C-61" style="edgeStyle=none;rounded=0;orthogonalLoop=1;jettySize=auto;html=1;entryX=0;entryY=0.5;entryDx=0;entryDy=0;endArrow=none;endFill=0;" edge="1" parent="1" source="-vrJm0YTmy-wLik_O10C-1" target="-vrJm0YTmy-wLik_O10C-60">
          <mxGeometry relative="1" as="geometry" />
        </mxCell>
        <mxCell id="-vrJm0YTmy-wLik_O10C-1" value="Customer" style="shape=umlActor;verticalLabelPosition=bottom;verticalAlign=top;html=1;outlineConnect=0;" vertex="1" parent="1">
          <mxGeometry x="110" y="150" width="30" height="60" as="geometry" />
        </mxCell>
        <mxCell id="-vrJm0YTmy-wLik_O10C-28" style="edgeStyle=none;rounded=0;orthogonalLoop=1;jettySize=auto;html=1;entryX=0;entryY=0.5;entryDx=0;entryDy=0;endArrow=none;endFill=0;" edge="1" parent="1" source="-vrJm0YTmy-wLik_O10C-5" target="-vrJm0YTmy-wLik_O10C-27">
          <mxGeometry relative="1" as="geometry" />
        </mxCell>
        <mxCell id="-vrJm0YTmy-wLik_O10C-30" style="edgeStyle=none;rounded=0;orthogonalLoop=1;jettySize=auto;html=1;entryX=0;entryY=0.5;entryDx=0;entryDy=0;endArrow=none;endFill=0;" edge="1" parent="1" source="-vrJm0YTmy-wLik_O10C-5" target="-vrJm0YTmy-wLik_O10C-29">
          <mxGeometry relative="1" as="geometry" />
        </mxCell>
        <mxCell id="-vrJm0YTmy-wLik_O10C-5" value="Operator" style="shape=umlActor;verticalLabelPosition=bottom;verticalAlign=top;html=1;outlineConnect=0;" vertex="1" parent="1">
          <mxGeometry x="120" y="460" width="30" height="60" as="geometry" />
        </mxCell>
        <mxCell id="-vrJm0YTmy-wLik_O10C-8" value="ATM" style="text;html=1;strokeColor=none;fillColor=none;align=center;verticalAlign=middle;whiteSpace=wrap;rounded=0;" vertex="1" parent="1">
          <mxGeometry x="405" y="130" width="40" height="20" as="geometry" />
        </mxCell>
        <mxCell id="-vrJm0YTmy-wLik_O10C-23" style="edgeStyle=none;rounded=0;orthogonalLoop=1;jettySize=auto;html=1;exitX=1;exitY=0.5;exitDx=0;exitDy=0;entryX=0.071;entryY=0.251;entryDx=0;entryDy=0;endArrow=block;endFill=1;entryPerimeter=0;" edge="1" parent="1" source="-vrJm0YTmy-wLik_O10C-10" target="-vrJm0YTmy-wLik_O10C-16">
          <mxGeometry relative="1" as="geometry" />
        </mxCell>
        <mxCell id="-vrJm0YTmy-wLik_O10C-10" value="make a cash Withdrawal" style="ellipse;whiteSpace=wrap;html=1;" vertex="1" parent="1">
          <mxGeometry x="280" y="190" width="80" height="50" as="geometry" />
        </mxCell>
        <mxCell id="-vrJm0YTmy-wLik_O10C-24" style="edgeStyle=none;rounded=0;orthogonalLoop=1;jettySize=auto;html=1;exitX=1;exitY=0.5;exitDx=0;exitDy=0;entryX=0;entryY=0.5;entryDx=0;entryDy=0;endArrow=block;endFill=1;" edge="1" parent="1" source="-vrJm0YTmy-wLik_O10C-11" target="-vrJm0YTmy-wLik_O10C-16">
          <mxGeometry relative="1" as="geometry" />
        </mxCell>
        <mxCell id="-vrJm0YTmy-wLik_O10C-11" value="Make a Transfer" style="ellipse;whiteSpace=wrap;html=1;" vertex="1" parent="1">
          <mxGeometry x="280" y="250" width="80" height="50" as="geometry" />
        </mxCell>
        <mxCell id="-vrJm0YTmy-wLik_O10C-22" style="edgeStyle=none;rounded=0;orthogonalLoop=1;jettySize=auto;html=1;entryX=1;entryY=0.5;entryDx=0;entryDy=0;endArrow=none;endFill=0;" edge="1" parent="1" source="-vrJm0YTmy-wLik_O10C-12" target="-vrJm0YTmy-wLik_O10C-16">
          <mxGeometry relative="1" as="geometry" />
        </mxCell>
        <mxCell id="-vrJm0YTmy-wLik_O10C-32" style="edgeStyle=none;rounded=0;orthogonalLoop=1;jettySize=auto;html=1;entryX=1;entryY=0.5;entryDx=0;entryDy=0;endArrow=none;endFill=0;" edge="1" parent="1" source="-vrJm0YTmy-wLik_O10C-12" target="-vrJm0YTmy-wLik_O10C-31">
          <mxGeometry relative="1" as="geometry" />
        </mxCell>
        <mxCell id="-vrJm0YTmy-wLik_O10C-12" value="Bank Service" style="shape=umlActor;verticalLabelPosition=bottom;verticalAlign=top;html=1;outlineConnect=0;" vertex="1" parent="1">
          <mxGeometry x="680" y="381.33" width="30" height="60" as="geometry" />
        </mxCell>
        <mxCell id="-vrJm0YTmy-wLik_O10C-25" style="edgeStyle=none;rounded=0;orthogonalLoop=1;jettySize=auto;html=1;exitX=1;exitY=0.5;exitDx=0;exitDy=0;entryX=0.071;entryY=0.728;entryDx=0;entryDy=0;endArrow=block;endFill=1;entryPerimeter=0;" edge="1" parent="1" source="-vrJm0YTmy-wLik_O10C-15" target="-vrJm0YTmy-wLik_O10C-16">
          <mxGeometry relative="1" as="geometry" />
        </mxCell>
        <mxCell id="-vrJm0YTmy-wLik_O10C-15" value="Make a &lt;br&gt;Balance" style="ellipse;whiteSpace=wrap;html=1;" vertex="1" parent="1">
          <mxGeometry x="280" y="310" width="80" height="50" as="geometry" />
        </mxCell>
        <mxCell id="-vrJm0YTmy-wLik_O10C-33" style="edgeStyle=none;rounded=0;orthogonalLoop=1;jettySize=auto;html=1;exitX=0.5;exitY=1;exitDx=0;exitDy=0;entryX=0.5;entryY=0;entryDx=0;entryDy=0;endArrow=block;endFill=1;" edge="1" parent="1" source="-vrJm0YTmy-wLik_O10C-16" target="-vrJm0YTmy-wLik_O10C-31">
          <mxGeometry relative="1" as="geometry" />
        </mxCell>
        <mxCell id="-vrJm0YTmy-wLik_O10C-34" style="edgeStyle=none;rounded=0;orthogonalLoop=1;jettySize=auto;html=1;exitX=0;exitY=1;exitDx=0;exitDy=0;entryX=0.693;entryY=-0.016;entryDx=0;entryDy=0;entryPerimeter=0;endArrow=block;endFill=1;" edge="1" parent="1" source="-vrJm0YTmy-wLik_O10C-16" target="-vrJm0YTmy-wLik_O10C-29">
          <mxGeometry relative="1" as="geometry" />
        </mxCell>
        <mxCell id="-vrJm0YTmy-wLik_O10C-90" style="rounded=0;orthogonalLoop=1;jettySize=auto;html=1;exitX=0;exitY=1;exitDx=0;exitDy=0;entryX=1;entryY=0.5;entryDx=0;entryDy=0;endArrow=block;endFill=1;" edge="1" parent="1" source="-vrJm0YTmy-wLik_O10C-16" target="-vrJm0YTmy-wLik_O10C-89">
          <mxGeometry relative="1" as="geometry" />
        </mxCell>
        <mxCell id="-vrJm0YTmy-wLik_O10C-16" value="Commutication&lt;br&gt;and Verification&amp;nbsp;&lt;br&gt;by Bank" style="ellipse;whiteSpace=wrap;html=1;" vertex="1" parent="1">
          <mxGeometry x="460" y="220" width="100" height="80" as="geometry" />
        </mxCell>
        <mxCell id="-vrJm0YTmy-wLik_O10C-27" value="Turn On/Off&lt;br&gt;the Machine" style="ellipse;whiteSpace=wrap;html=1;" vertex="1" parent="1">
          <mxGeometry x="260" y="500" width="110" height="50" as="geometry" />
        </mxCell>
        <mxCell id="-vrJm0YTmy-wLik_O10C-29" value="verify and enter the total cash on hand" style="ellipse;whiteSpace=wrap;html=1;" vertex="1" parent="1">
          <mxGeometry x="260" y="420" width="110" height="50" as="geometry" />
        </mxCell>
        <mxCell id="-vrJm0YTmy-wLik_O10C-31" value="Check Internal Log Transactions" style="ellipse;whiteSpace=wrap;html=1;" vertex="1" parent="1">
          <mxGeometry x="460" y="421.33" width="100" height="80" as="geometry" />
        </mxCell>
        <mxCell id="-vrJm0YTmy-wLik_O10C-68" value="has" style="edgeStyle=none;rounded=0;orthogonalLoop=1;jettySize=auto;html=1;exitX=1;exitY=0.5;exitDx=0;exitDy=0;entryX=0;entryY=0.5;entryDx=0;entryDy=0;endArrow=none;endFill=0;" edge="1" parent="1" source="-vrJm0YTmy-wLik_O10C-35" target="-vrJm0YTmy-wLik_O10C-67">
          <mxGeometry x="0.0909" y="10" relative="1" as="geometry">
            <mxPoint as="offset" />
          </mxGeometry>
        </mxCell>
        <mxCell id="-vrJm0YTmy-wLik_O10C-35" value="Customer" style="swimlane;" vertex="1" parent="1">
          <mxGeometry x="310" y="650" width="80" height="80" as="geometry" />
        </mxCell>
        <mxCell id="-vrJm0YTmy-wLik_O10C-55" style="edgeStyle=none;rounded=0;orthogonalLoop=1;jettySize=auto;html=1;exitX=1;exitY=0.5;exitDx=0;exitDy=0;endArrow=none;endFill=0;entryX=0;entryY=0.5;entryDx=0;entryDy=0;" edge="1" parent="1" source="-vrJm0YTmy-wLik_O10C-36" target="-vrJm0YTmy-wLik_O10C-58">
          <mxGeometry relative="1" as="geometry">
            <mxPoint x="210" y="900" as="targetPoint" />
          </mxGeometry>
        </mxCell>
        <mxCell id="-vrJm0YTmy-wLik_O10C-56" style="edgeStyle=none;rounded=0;orthogonalLoop=1;jettySize=auto;html=1;exitX=0.5;exitY=1;exitDx=0;exitDy=0;entryX=0.5;entryY=0;entryDx=0;entryDy=0;endArrow=none;endFill=0;" edge="1" parent="1" source="-vrJm0YTmy-wLik_O10C-36" target="-vrJm0YTmy-wLik_O10C-53">
          <mxGeometry relative="1" as="geometry" />
        </mxCell>
        <mxCell id="-vrJm0YTmy-wLik_O10C-36" value="Operator" style="swimlane;" vertex="1" parent="1">
          <mxGeometry x="170" y="790" width="80" height="80" as="geometry" />
        </mxCell>
        <mxCell id="-vrJm0YTmy-wLik_O10C-41" style="edgeStyle=none;rounded=0;orthogonalLoop=1;jettySize=auto;html=1;entryX=0.5;entryY=0;entryDx=0;entryDy=0;endArrow=none;endFill=0;exitX=0.5;exitY=1;exitDx=0;exitDy=0;" edge="1" parent="1" source="-vrJm0YTmy-wLik_O10C-96" target="-vrJm0YTmy-wLik_O10C-39">
          <mxGeometry relative="1" as="geometry">
            <mxPoint x="710" y="850" as="sourcePoint" />
          </mxGeometry>
        </mxCell>
        <mxCell id="-vrJm0YTmy-wLik_O10C-43" style="edgeStyle=none;rounded=0;orthogonalLoop=1;jettySize=auto;html=1;entryX=1;entryY=0.5;entryDx=0;entryDy=0;endArrow=none;endFill=0;" edge="1" parent="1" source="-vrJm0YTmy-wLik_O10C-75" target="-vrJm0YTmy-wLik_O10C-96">
          <mxGeometry relative="1" as="geometry" />
        </mxCell>
        <mxCell id="-vrJm0YTmy-wLik_O10C-51" style="edgeStyle=none;rounded=0;orthogonalLoop=1;jettySize=auto;html=1;exitX=0.5;exitY=1;exitDx=0;exitDy=0;entryX=0.5;entryY=0;entryDx=0;entryDy=0;endArrow=none;endFill=0;" edge="1" parent="1" source="-vrJm0YTmy-wLik_O10C-37" target="-vrJm0YTmy-wLik_O10C-50">
          <mxGeometry relative="1" as="geometry" />
        </mxCell>
        <mxCell id="-vrJm0YTmy-wLik_O10C-54" style="edgeStyle=none;rounded=0;orthogonalLoop=1;jettySize=auto;html=1;exitX=0.5;exitY=1;exitDx=0;exitDy=0;entryX=0.5;entryY=0;entryDx=0;entryDy=0;endArrow=none;endFill=0;" edge="1" parent="1" source="-vrJm0YTmy-wLik_O10C-37" target="-vrJm0YTmy-wLik_O10C-53">
          <mxGeometry relative="1" as="geometry" />
        </mxCell>
        <mxCell id="-vrJm0YTmy-wLik_O10C-99" style="edgeStyle=none;rounded=0;orthogonalLoop=1;jettySize=auto;html=1;exitX=1;exitY=0.5;exitDx=0;exitDy=0;entryX=0.004;entryY=0.501;entryDx=0;entryDy=0;entryPerimeter=0;endArrow=none;endFill=0;" edge="1" parent="1" source="-vrJm0YTmy-wLik_O10C-37" target="-vrJm0YTmy-wLik_O10C-97">
          <mxGeometry relative="1" as="geometry" />
        </mxCell>
        <mxCell id="-vrJm0YTmy-wLik_O10C-37" value="ATM" style="swimlane;" vertex="1" parent="1">
          <mxGeometry x="560" y="780" width="80" height="80" as="geometry" />
        </mxCell>
        <mxCell id="-vrJm0YTmy-wLik_O10C-76" style="rounded=0;orthogonalLoop=1;jettySize=auto;html=1;entryX=0.5;entryY=1;entryDx=0;entryDy=0;endArrow=none;endFill=0;exitX=0.5;exitY=0;exitDx=0;exitDy=0;" edge="1" parent="1" source="-vrJm0YTmy-wLik_O10C-38" target="-vrJm0YTmy-wLik_O10C-96">
          <mxGeometry relative="1" as="geometry" />
        </mxCell>
        <mxCell id="-vrJm0YTmy-wLik_O10C-38" value="Withdrawal" style="swimlane;startSize=23;" vertex="1" parent="1">
          <mxGeometry x="620" y="910" width="80" height="80" as="geometry" />
        </mxCell>
        <mxCell id="-vrJm0YTmy-wLik_O10C-86" value="+ Amount" style="text;html=1;align=center;verticalAlign=middle;resizable=0;points=[];autosize=1;strokeColor=none;" vertex="1" parent="-vrJm0YTmy-wLik_O10C-38">
          <mxGeometry y="30" width="70" height="20" as="geometry" />
        </mxCell>
        <mxCell id="-vrJm0YTmy-wLik_O10C-39" value="Transfer" style="swimlane;startSize=23;" vertex="1" parent="1">
          <mxGeometry x="720" y="910" width="80" height="80" as="geometry" />
        </mxCell>
        <mxCell id="-vrJm0YTmy-wLik_O10C-87" value="+ Amount" style="text;html=1;align=center;verticalAlign=middle;resizable=0;points=[];autosize=1;strokeColor=none;" vertex="1" parent="-vrJm0YTmy-wLik_O10C-39">
          <mxGeometry y="30" width="70" height="20" as="geometry" />
        </mxCell>
        <mxCell id="-vrJm0YTmy-wLik_O10C-49" style="edgeStyle=orthogonalEdgeStyle;rounded=0;orthogonalLoop=1;jettySize=auto;html=1;entryX=1;entryY=0.5;entryDx=0;entryDy=0;endArrow=none;endFill=0;exitX=1;exitY=0.5;exitDx=0;exitDy=0;" edge="1" parent="1" source="-vrJm0YTmy-wLik_O10C-40" target="-vrJm0YTmy-wLik_O10C-46">
          <mxGeometry relative="1" as="geometry" />
        </mxCell>
        <mxCell id="-vrJm0YTmy-wLik_O10C-40" value="Balance" style="swimlane;startSize=23;" vertex="1" parent="1">
          <mxGeometry x="790" y="780" width="80" height="80" as="geometry" />
        </mxCell>
        <mxCell id="-vrJm0YTmy-wLik_O10C-75" value="+ Cash" style="text;html=1;align=center;verticalAlign=middle;resizable=0;points=[];autosize=1;strokeColor=none;" vertex="1" parent="-vrJm0YTmy-wLik_O10C-40">
          <mxGeometry y="30" width="50" height="20" as="geometry" />
        </mxCell>
        <mxCell id="-vrJm0YTmy-wLik_O10C-47" style="edgeStyle=none;rounded=0;orthogonalLoop=1;jettySize=auto;html=1;exitX=0.5;exitY=0;exitDx=0;exitDy=0;entryX=0.5;entryY=1;entryDx=0;entryDy=0;endArrow=none;endFill=0;" edge="1" parent="1" source="-vrJm0YTmy-wLik_O10C-46" target="-vrJm0YTmy-wLik_O10C-38">
          <mxGeometry relative="1" as="geometry" />
        </mxCell>
        <mxCell id="-vrJm0YTmy-wLik_O10C-48" style="edgeStyle=none;rounded=0;orthogonalLoop=1;jettySize=auto;html=1;entryX=0.5;entryY=1;entryDx=0;entryDy=0;endArrow=none;endFill=0;exitX=0.5;exitY=0;exitDx=0;exitDy=0;" edge="1" parent="1" source="-vrJm0YTmy-wLik_O10C-46" target="-vrJm0YTmy-wLik_O10C-39">
          <mxGeometry relative="1" as="geometry" />
        </mxCell>
        <mxCell id="-vrJm0YTmy-wLik_O10C-46" value="Bank" style="swimlane;" vertex="1" parent="1">
          <mxGeometry x="470" y="1040" width="80" height="80" as="geometry" />
        </mxCell>
        <mxCell id="-vrJm0YTmy-wLik_O10C-52" style="edgeStyle=none;rounded=0;orthogonalLoop=1;jettySize=auto;html=1;exitX=0.5;exitY=1;exitDx=0;exitDy=0;entryX=0.5;entryY=0;entryDx=0;entryDy=0;endArrow=none;endFill=0;" edge="1" parent="1" source="-vrJm0YTmy-wLik_O10C-50" target="-vrJm0YTmy-wLik_O10C-46">
          <mxGeometry relative="1" as="geometry" />
        </mxCell>
        <mxCell id="-vrJm0YTmy-wLik_O10C-50" value="Log Transaction" style="swimlane;startSize=23;" vertex="1" parent="1">
          <mxGeometry x="360" y="910" width="100" height="80" as="geometry" />
        </mxCell>
        <mxCell id="-vrJm0YTmy-wLik_O10C-53" value="Cash" style="swimlane;startSize=23;" vertex="1" parent="1">
          <mxGeometry x="270" y="910" width="80" height="80" as="geometry" />
        </mxCell>
        <mxCell id="-vrJm0YTmy-wLik_O10C-95" value="+ Amount" style="text;html=1;align=center;verticalAlign=middle;resizable=0;points=[];autosize=1;strokeColor=none;" vertex="1" parent="-vrJm0YTmy-wLik_O10C-53">
          <mxGeometry y="30" width="70" height="20" as="geometry" />
        </mxCell>
        <mxCell id="-vrJm0YTmy-wLik_O10C-59" style="edgeStyle=none;rounded=0;orthogonalLoop=1;jettySize=auto;html=1;endArrow=none;endFill=0;exitX=1;exitY=0.5;exitDx=0;exitDy=0;entryX=0;entryY=0.5;entryDx=0;entryDy=0;" edge="1" parent="1" source="-vrJm0YTmy-wLik_O10C-58" target="-vrJm0YTmy-wLik_O10C-37">
          <mxGeometry relative="1" as="geometry">
            <mxPoint x="600" y="850" as="targetPoint" />
          </mxGeometry>
        </mxCell>
        <mxCell id="-vrJm0YTmy-wLik_O10C-58" value="Power" style="swimlane;startSize=23;" vertex="1" parent="1">
          <mxGeometry x="360" y="790" width="80" height="80" as="geometry" />
        </mxCell>
        <mxCell id="-vrJm0YTmy-wLik_O10C-77" value="+ Key Type" style="text;html=1;align=center;verticalAlign=middle;resizable=0;points=[];autosize=1;strokeColor=none;" vertex="1" parent="-vrJm0YTmy-wLik_O10C-58">
          <mxGeometry y="30" width="80" height="20" as="geometry" />
        </mxCell>
        <mxCell id="-vrJm0YTmy-wLik_O10C-62" style="edgeStyle=none;rounded=0;orthogonalLoop=1;jettySize=auto;html=1;exitX=1;exitY=0.5;exitDx=0;exitDy=0;entryX=0;entryY=0;entryDx=0;entryDy=0;endArrow=block;endFill=1;" edge="1" parent="1" source="-vrJm0YTmy-wLik_O10C-60" target="-vrJm0YTmy-wLik_O10C-16">
          <mxGeometry relative="1" as="geometry" />
        </mxCell>
        <mxCell id="-vrJm0YTmy-wLik_O10C-60" value="Enter&amp;nbsp;&lt;br&gt;PIN Number" style="ellipse;whiteSpace=wrap;html=1;" vertex="1" parent="1">
          <mxGeometry x="280" y="130" width="80" height="50" as="geometry" />
        </mxCell>
        <mxCell id="-vrJm0YTmy-wLik_O10C-69" style="edgeStyle=orthogonalEdgeStyle;rounded=0;orthogonalLoop=1;jettySize=auto;html=1;entryX=0.5;entryY=0;entryDx=0;entryDy=0;endArrow=none;endFill=0;" edge="1" parent="1" source="-vrJm0YTmy-wLik_O10C-67" target="-vrJm0YTmy-wLik_O10C-79">
          <mxGeometry relative="1" as="geometry" />
        </mxCell>
        <mxCell id="-vrJm0YTmy-wLik_O10C-70" value="Insert" style="edgeLabel;html=1;align=center;verticalAlign=middle;resizable=0;points=[];" vertex="1" connectable="0" parent="-vrJm0YTmy-wLik_O10C-69">
          <mxGeometry x="-0.0805" y="3" relative="1" as="geometry">
            <mxPoint x="-20" y="-7" as="offset" />
          </mxGeometry>
        </mxCell>
        <mxCell id="-vrJm0YTmy-wLik_O10C-78" value="Insert" style="edgeLabel;html=1;align=center;verticalAlign=middle;resizable=0;points=[];" vertex="1" connectable="0" parent="-vrJm0YTmy-wLik_O10C-69">
          <mxGeometry x="-0.0805" y="3" relative="1" as="geometry">
            <mxPoint x="-283" y="83" as="offset" />
          </mxGeometry>
        </mxCell>
        <mxCell id="-vrJm0YTmy-wLik_O10C-83" style="edgeStyle=orthogonalEdgeStyle;rounded=0;orthogonalLoop=1;jettySize=auto;html=1;exitX=1;exitY=0.5;exitDx=0;exitDy=0;entryX=0.5;entryY=0;entryDx=0;entryDy=0;endArrow=none;endFill=0;" edge="1" parent="1" source="-vrJm0YTmy-wLik_O10C-67" target="-vrJm0YTmy-wLik_O10C-81">
          <mxGeometry relative="1" as="geometry">
            <Array as="points">
              <mxPoint x="550" y="690" />
              <mxPoint x="550" y="620" />
              <mxPoint x="750" y="620" />
            </Array>
          </mxGeometry>
        </mxCell>
        <mxCell id="-vrJm0YTmy-wLik_O10C-67" value="Card" style="swimlane;" vertex="1" parent="1">
          <mxGeometry x="445" y="650" width="80" height="80" as="geometry" />
        </mxCell>
        <mxCell id="-vrJm0YTmy-wLik_O10C-73" value="+ Card No.&lt;br&gt;+ PIN No." style="text;html=1;align=left;verticalAlign=middle;resizable=0;points=[];autosize=1;strokeColor=none;" vertex="1" parent="-vrJm0YTmy-wLik_O10C-67">
          <mxGeometry y="25" width="70" height="30" as="geometry" />
        </mxCell>
        <mxCell id="-vrJm0YTmy-wLik_O10C-84" style="edgeStyle=orthogonalEdgeStyle;rounded=0;orthogonalLoop=1;jettySize=auto;html=1;exitX=0.5;exitY=1;exitDx=0;exitDy=0;entryX=0.5;entryY=0;entryDx=0;entryDy=0;endArrow=none;endFill=0;" edge="1" parent="1" source="-vrJm0YTmy-wLik_O10C-79" target="-vrJm0YTmy-wLik_O10C-37">
          <mxGeometry relative="1" as="geometry" />
        </mxCell>
        <mxCell id="-vrJm0YTmy-wLik_O10C-79" value="Dispenser" style="swimlane;" vertex="1" parent="1">
          <mxGeometry x="620" y="650" width="80" height="80" as="geometry" />
        </mxCell>
        <mxCell id="-vrJm0YTmy-wLik_O10C-80" value="+ Cash" style="text;html=1;align=left;verticalAlign=middle;resizable=0;points=[];autosize=1;strokeColor=none;" vertex="1" parent="-vrJm0YTmy-wLik_O10C-79">
          <mxGeometry y="30" width="50" height="20" as="geometry" />
        </mxCell>
        <mxCell id="-vrJm0YTmy-wLik_O10C-85" style="edgeStyle=orthogonalEdgeStyle;rounded=0;orthogonalLoop=1;jettySize=auto;html=1;exitX=0.5;exitY=1;exitDx=0;exitDy=0;endArrow=none;endFill=0;" edge="1" parent="1" source="-vrJm0YTmy-wLik_O10C-81">
          <mxGeometry relative="1" as="geometry">
            <mxPoint x="600" y="780" as="targetPoint" />
          </mxGeometry>
        </mxCell>
        <mxCell id="-vrJm0YTmy-wLik_O10C-81" value="IC Reader" style="swimlane;" vertex="1" parent="1">
          <mxGeometry x="710" y="650" width="80" height="80" as="geometry" />
        </mxCell>
        <mxCell id="-vrJm0YTmy-wLik_O10C-82" value="+ Card No.&lt;br&gt;+ PIN No." style="text;html=1;align=left;verticalAlign=middle;resizable=0;points=[];autosize=1;strokeColor=none;" vertex="1" parent="-vrJm0YTmy-wLik_O10C-81">
          <mxGeometry y="25" width="70" height="30" as="geometry" />
        </mxCell>
        <mxCell id="-vrJm0YTmy-wLik_O10C-91" style="edgeStyle=none;rounded=0;orthogonalLoop=1;jettySize=auto;html=1;exitX=0;exitY=0.5;exitDx=0;exitDy=0;endArrow=none;endFill=0;" edge="1" parent="1" source="-vrJm0YTmy-wLik_O10C-89" target="-vrJm0YTmy-wLik_O10C-1">
          <mxGeometry relative="1" as="geometry" />
        </mxCell>
        <mxCell id="-vrJm0YTmy-wLik_O10C-89" value="Print Receipt" style="ellipse;whiteSpace=wrap;html=1;" vertex="1" parent="1">
          <mxGeometry x="230" y="360" width="80" height="50" as="geometry" />
        </mxCell>
        <mxCell id="-vrJm0YTmy-wLik_O10C-93" style="edgeStyle=orthogonalEdgeStyle;rounded=0;orthogonalLoop=1;jettySize=auto;html=1;exitX=0.5;exitY=0;exitDx=0;exitDy=0;entryX=0.5;entryY=1;entryDx=0;entryDy=0;endArrow=none;endFill=0;" edge="1" parent="1" source="-vrJm0YTmy-wLik_O10C-92" target="-vrJm0YTmy-wLik_O10C-35">
          <mxGeometry relative="1" as="geometry">
            <Array as="points">
              <mxPoint x="510" y="760" />
              <mxPoint x="350" y="760" />
            </Array>
          </mxGeometry>
        </mxCell>
        <mxCell id="-vrJm0YTmy-wLik_O10C-94" style="rounded=0;orthogonalLoop=1;jettySize=auto;html=1;exitX=0.5;exitY=0;exitDx=0;exitDy=0;entryX=0.5;entryY=1;entryDx=0;entryDy=0;endArrow=none;endFill=0;" edge="1" parent="1" source="-vrJm0YTmy-wLik_O10C-92" target="-vrJm0YTmy-wLik_O10C-37">
          <mxGeometry relative="1" as="geometry" />
        </mxCell>
        <mxCell id="-vrJm0YTmy-wLik_O10C-92" value="Recipt" style="swimlane;startSize=23;" vertex="1" parent="1">
          <mxGeometry x="470" y="910" width="80" height="80" as="geometry" />
        </mxCell>
        <mxCell id="-vrJm0YTmy-wLik_O10C-96" value="Transaction" style="swimlane;" vertex="1" parent="1">
          <mxGeometry x="660" y="780" width="105" height="80" as="geometry" />
        </mxCell>
        <mxCell id="-vrJm0YTmy-wLik_O10C-97" value="+ Transaction &lt;br&gt;Type" style="text;html=1;align=center;verticalAlign=middle;resizable=0;points=[];autosize=1;strokeColor=none;" vertex="1" parent="-vrJm0YTmy-wLik_O10C-96">
          <mxGeometry y="25" width="90" height="30" as="geometry" />
        </mxCell>
        <mxCell id="-vrJm0YTmy-wLik_O10C-102" value="Transaction" style="swimlane;fontStyle=1;align=center;verticalAlign=top;childLayout=stackLayout;horizontal=1;startSize=26;horizontalStack=0;resizeParent=1;resizeParentMax=0;resizeLast=0;collapsible=1;marginBottom=0;" vertex="1" parent="1">
          <mxGeometry x="430" y="1460" width="160" height="116" as="geometry" />
        </mxCell>
        <mxCell id="-vrJm0YTmy-wLik_O10C-103" value="+ Type: String&#xa;" style="text;strokeColor=none;fillColor=none;align=left;verticalAlign=top;spacingLeft=4;spacingRight=4;overflow=hidden;rotatable=0;points=[[0,0.5],[1,0.5]];portConstraint=eastwest;" vertex="1" parent="-vrJm0YTmy-wLik_O10C-102">
          <mxGeometry y="26" width="160" height="26" as="geometry" />
        </mxCell>
        <mxCell id="-vrJm0YTmy-wLik_O10C-104" value="" style="line;strokeWidth=1;fillColor=none;align=left;verticalAlign=middle;spacingTop=-1;spacingLeft=3;spacingRight=3;rotatable=0;labelPosition=right;points=[];portConstraint=eastwest;" vertex="1" parent="-vrJm0YTmy-wLik_O10C-102">
          <mxGeometry y="52" width="160" height="38" as="geometry" />
        </mxCell>
        <mxCell id="-vrJm0YTmy-wLik_O10C-105" value="+ method(type): type" style="text;strokeColor=none;fillColor=none;align=left;verticalAlign=top;spacingLeft=4;spacingRight=4;overflow=hidden;rotatable=0;points=[[0,0.5],[1,0.5]];portConstraint=eastwest;" vertex="1" parent="-vrJm0YTmy-wLik_O10C-102">
          <mxGeometry y="90" width="160" height="26" as="geometry" />
        </mxCell>
        <mxCell id="-vrJm0YTmy-wLik_O10C-123" style="edgeStyle=none;rounded=0;orthogonalLoop=1;jettySize=auto;html=1;exitX=0.5;exitY=0;exitDx=0;exitDy=0;endArrow=block;endFill=0;" edge="1" parent="1" source="-vrJm0YTmy-wLik_O10C-110" target="-vrJm0YTmy-wLik_O10C-105">
          <mxGeometry relative="1" as="geometry" />
        </mxCell>
        <mxCell id="-vrJm0YTmy-wLik_O10C-110" value="Transfer" style="swimlane;fontStyle=1;align=center;verticalAlign=top;childLayout=stackLayout;horizontal=1;startSize=26;horizontalStack=0;resizeParent=1;resizeParentMax=0;resizeLast=0;collapsible=1;marginBottom=0;" vertex="1" parent="1">
          <mxGeometry x="430" y="1630" width="160" height="144" as="geometry" />
        </mxCell>
        <mxCell id="-vrJm0YTmy-wLik_O10C-111" value="+ Amount: Int&#xa;+ Addr: String&#xa;" style="text;strokeColor=none;fillColor=none;align=left;verticalAlign=top;spacingLeft=4;spacingRight=4;overflow=hidden;rotatable=0;points=[[0,0.5],[1,0.5]];portConstraint=eastwest;" vertex="1" parent="-vrJm0YTmy-wLik_O10C-110">
          <mxGeometry y="26" width="160" height="44" as="geometry" />
        </mxCell>
        <mxCell id="-vrJm0YTmy-wLik_O10C-112" value="" style="line;strokeWidth=1;fillColor=none;align=left;verticalAlign=middle;spacingTop=-1;spacingLeft=3;spacingRight=3;rotatable=0;labelPosition=right;points=[];portConstraint=eastwest;" vertex="1" parent="-vrJm0YTmy-wLik_O10C-110">
          <mxGeometry y="70" width="160" height="48" as="geometry" />
        </mxCell>
        <mxCell id="-vrJm0YTmy-wLik_O10C-113" value="+ setTransfer(amount,addr)" style="text;strokeColor=none;fillColor=none;align=left;verticalAlign=top;spacingLeft=4;spacingRight=4;overflow=hidden;rotatable=0;points=[[0,0.5],[1,0.5]];portConstraint=eastwest;" vertex="1" parent="-vrJm0YTmy-wLik_O10C-110">
          <mxGeometry y="118" width="160" height="26" as="geometry" />
        </mxCell>
        <mxCell id="-vrJm0YTmy-wLik_O10C-114" value="Balance" style="swimlane;fontStyle=1;align=center;verticalAlign=top;childLayout=stackLayout;horizontal=1;startSize=26;horizontalStack=0;resizeParent=1;resizeParentMax=0;resizeLast=0;collapsible=1;marginBottom=0;" vertex="1" parent="1">
          <mxGeometry x="630" y="1630" width="160" height="120" as="geometry" />
        </mxCell>
        <mxCell id="-vrJm0YTmy-wLik_O10C-115" value="+ Type: String&#xa;" style="text;strokeColor=none;fillColor=none;align=left;verticalAlign=top;spacingLeft=4;spacingRight=4;overflow=hidden;rotatable=0;points=[[0,0.5],[1,0.5]];portConstraint=eastwest;" vertex="1" parent="-vrJm0YTmy-wLik_O10C-114">
          <mxGeometry y="26" width="160" height="26" as="geometry" />
        </mxCell>
        <mxCell id="-vrJm0YTmy-wLik_O10C-116" value="" style="line;strokeWidth=1;fillColor=none;align=left;verticalAlign=middle;spacingTop=-1;spacingLeft=3;spacingRight=3;rotatable=0;labelPosition=right;points=[];portConstraint=eastwest;" vertex="1" parent="-vrJm0YTmy-wLik_O10C-114">
          <mxGeometry y="52" width="160" height="38" as="geometry" />
        </mxCell>
        <mxCell id="-vrJm0YTmy-wLik_O10C-117" value="+ getAmount()" style="text;strokeColor=none;fillColor=none;align=left;verticalAlign=top;spacingLeft=4;spacingRight=4;overflow=hidden;rotatable=0;points=[[0,0.5],[1,0.5]];portConstraint=eastwest;" vertex="1" parent="-vrJm0YTmy-wLik_O10C-114">
          <mxGeometry y="90" width="160" height="30" as="geometry" />
        </mxCell>
        <mxCell id="-vrJm0YTmy-wLik_O10C-122" style="edgeStyle=none;rounded=0;orthogonalLoop=1;jettySize=auto;html=1;exitX=0.5;exitY=0;exitDx=0;exitDy=0;entryX=0.255;entryY=1.088;entryDx=0;entryDy=0;entryPerimeter=0;endArrow=block;endFill=0;" edge="1" parent="1" source="-vrJm0YTmy-wLik_O10C-118" target="-vrJm0YTmy-wLik_O10C-105">
          <mxGeometry relative="1" as="geometry" />
        </mxCell>
        <mxCell id="-vrJm0YTmy-wLik_O10C-118" value="Withdrawal" style="swimlane;fontStyle=1;align=center;verticalAlign=top;childLayout=stackLayout;horizontal=1;startSize=26;horizontalStack=0;resizeParent=1;resizeParentMax=0;resizeLast=0;collapsible=1;marginBottom=0;" vertex="1" parent="1">
          <mxGeometry x="230" y="1630" width="160" height="144" as="geometry" />
        </mxCell>
        <mxCell id="-vrJm0YTmy-wLik_O10C-119" value="+ Amount: Int&#xa;" style="text;strokeColor=none;fillColor=none;align=left;verticalAlign=top;spacingLeft=4;spacingRight=4;overflow=hidden;rotatable=0;points=[[0,0.5],[1,0.5]];portConstraint=eastwest;" vertex="1" parent="-vrJm0YTmy-wLik_O10C-118">
          <mxGeometry y="26" width="160" height="44" as="geometry" />
        </mxCell>
        <mxCell id="-vrJm0YTmy-wLik_O10C-120" value="" style="line;strokeWidth=1;fillColor=none;align=left;verticalAlign=middle;spacingTop=-1;spacingLeft=3;spacingRight=3;rotatable=0;labelPosition=right;points=[];portConstraint=eastwest;" vertex="1" parent="-vrJm0YTmy-wLik_O10C-118">
          <mxGeometry y="70" width="160" height="48" as="geometry" />
        </mxCell>
        <mxCell id="-vrJm0YTmy-wLik_O10C-121" value="+ setWithdrawal(amount)" style="text;strokeColor=none;fillColor=none;align=left;verticalAlign=top;spacingLeft=4;spacingRight=4;overflow=hidden;rotatable=0;points=[[0,0.5],[1,0.5]];portConstraint=eastwest;" vertex="1" parent="-vrJm0YTmy-wLik_O10C-118">
          <mxGeometry y="118" width="160" height="26" as="geometry" />
        </mxCell>
        <mxCell id="-vrJm0YTmy-wLik_O10C-124" value="Bank System" style="swimlane;fontStyle=1;align=center;verticalAlign=top;childLayout=stackLayout;horizontal=1;startSize=26;horizontalStack=0;resizeParent=1;resizeParentMax=0;resizeLast=0;collapsible=1;marginBottom=0;" vertex="1" parent="1">
          <mxGeometry x="900" y="1630" width="160" height="74" as="geometry" />
        </mxCell>
        <mxCell id="-vrJm0YTmy-wLik_O10C-126" value="" style="line;strokeWidth=1;fillColor=none;align=left;verticalAlign=middle;spacingTop=-1;spacingLeft=3;spacingRight=3;rotatable=0;labelPosition=right;points=[];portConstraint=eastwest;" vertex="1" parent="-vrJm0YTmy-wLik_O10C-124">
          <mxGeometry y="26" width="160" height="48" as="geometry" />
        </mxCell>
      </root>
    </mxGraphModel>
  </diagram>
</mxfile>
